<svg id="Layer_1" data-name="Layer 1" xmlns="http://www.w3.org/2000/svg" viewBox="0 0 288.08 163.99">
    <defs>
        <style>.cls-1{fill:#fff;}.cls-2{fill:#fddb00;}</style>
    </defs>
    <title>DRM-Ico-File-SP01</title>
    <path class="cls-1"
          d="M288,52.51l-.41-2.34-.29-.87-.31-.75c-2.23-5.23-6.27-7.9-11.92-8.1l3.46-1.82-8-14.93S252.14,33.22,250.78,34c-3.92,2.34-8.11,6.91-8.11,12.71a11.84,11.84,0,0,0,.55,2.86c-3.62-5-8.12-6.82-14.1-5.37a19.33,19.33,0,0,0-8.3,4.94l-.81-2L199.6,55.09l2.52,6.54a16.18,16.18,0,0,0-7.73-3.52h0c0-.1-1.55-1.92-1.67-2.05l9.18-8.27-1.27-1.46c.38-.38,4.19-4.16,4.19-4.16l0-7.08c0-.1,0-.4-1.89-3.6-.06-.08-3.5-3.21-3.5-3.21l-1.55.9c0-.09-4.83-1.34-4.83-1.34l-1.58-.41v0a5.56,5.56,0,0,0-2-4.07,5.83,5.83,0,0,0-5.92-5.26,6,6,0,0,0-6.11,5.89,5.55,5.55,0,0,0,2,4,.05.05,0,0,0,0,0l-2.89-.89L176,29l-.32-.07-3-.59.84-6.56-2.31.24c.08-.63.47-3.68.47-3.68L160.6,19.4c-.13,0-3.1,3.38-3.33,3.63l.33-4.46s-7.43,4.4-8.46,5c0-.87-.5-9.1-.5-9.1l-13.87,9.35s.31,6.2.33,6.47l-.58.43c0-.08-6.4-.93-7.4-1.06A5.69,5.69,0,0,0,125.18,26a5.83,5.83,0,0,0-5.92-5.26,6,6,0,0,0-6.09,5.82l-1.83.49c0-.69.24-3.81.24-3.81L99.42,26.54l-.48,1.27L91.53,47.4l-2-.31-3.24,7.66,2.58,1.69-.74,1.76,8,5.21L94.8,65.65,83,65.7v1.48a14.47,14.47,0,0,0-10.8,0c-6.88,3-11,10.37-11,19.63,0,.06,0,.13,0,.2l.2,3.12h-.25c-1.2,0-4.21-.43-4.23-1.55l0-17.33c.08-2.7,3-2.84,3.91-2.82l2.76.06,0-2.76v-12h13l-.06-19.1c0-4.66-2-8.13-5.43-9.52a9,9,0,0,0-6.25.07v-.68H51.92V10.7A10.48,10.48,0,0,0,41.38,0H.39V16l2.68,0c.4,0,3.91.13,4,2.81V35.49C7,38,3.46,38.15,3.06,38.16L.4,38.2.31,68.48l2.78-.06c.68,0,4.06,0,4.14,2.83l0,17.33c0,1-3,1.56-4.46,1.54L0,90.08l0,18.54H30.28V96.09L32,98.29l1.75-2.22v12.55H64.61s0-7.57,0-8.62l.17.31.87,1.25,2.69,2.82,1.76,1.27,2.09,1.11a12.83,12.83,0,0,0,5.15,1l.54,1.93c9,32,37.43,54.27,69.21,54.27,37.7,0,68.6-29.57,71.86-68.78,0,0,.12-1.49.16-2,9.66-3.21,30.62-11.7,38.81-15.61l-2.16-6.07,3.48,5.38,19.86-9.83a17.43,17.43,0,0,0,7.63-7.64l.14-.33.66-1.75.07-.29v-.06s.5-2.69.5-2.69,0-1.81,0-1.81v0Z"/>
    <path class="cls-2"
          d="M184.48,51.59c1.11-1.53,3.17-4.58,3.17-4.58l-1.44-1.55s-.62,1-1.26.4,2.38-9.72,2.38-9.72L180.28,34l-1,3.57,1.6,1.56-1.14,9A57.49,57.49,0,0,0,174,44.74a70.39,70.39,0,0,1,3-9.7l-6.7-1.34-3.11,3.53,1.61,1a5.7,5.7,0,0,1,.84-.66c.82-.48,1.12.58.53,1.54-1.11.76-2.3,1.6-3.48,2.48q-2.25-.77-4.58-1.37c2.07-4.71,4.26-9.56,5-10.64a14.68,14.68,0,0,1,2.83-.41l.56-4.39-6.26.64L157,39.19,155.94,39a103.46,103.46,0,0,1,.44-12.08l-7.58,4.6-.69,5.66s-.35.43-.87,1.18h-.43c0-3.25-.36-14.66-.36-14.66l-7.06,4.93.15,3.08,1.61.16c.24,2.12.46,4.45.67,6.72q-1.32.12-2.62.28l-.13-1.4s-.8-.57-1.29-1c-.53.41-2.34,2.28-2.88,1.47-.38-.57.48-1.28.48-1.28l-7.38-1-1.28,3.85,1.61,1.12-.12.67a57.94,57.94,0,0,0-6.7,2.69c.7-2.55,1.53-5.13,1.53-5.13l-7.69-2.09-1,3.69,1.6,1.61-.45,5.2a55.36,55.36,0,0,0-5.71,4.12c-.16-6.74.59-21.11.71-21.35-.75.24-7.22,2.09-7.22,2.09L95.12,53.86,93,53.53,91.5,57.18l6.19,4,3.21-8.5,3.44.8c.09.93.21,1.88.34,2.78A48.38,48.38,0,0,0,91.37,89.39c0,28.18,24.94,51,55.7,51s55.7-22.85,55.7-51C202.77,74.4,195.72,60.92,184.48,51.59Zm-80.53-2.71L102,48.4l2.4-6.69Zm81.46-18.32a3.18,3.18,0,1,0-3.4-3.17A3.29,3.29,0,0,0,185.41,30.56Zm8.1,21.11,4.61-4.12-1.57-1.8s-1.29,1-1.63-.07a8,8,0,0,1,.86-3.28c.62-1.26,1.59-3.11,2.25-2.08A10.62,10.62,0,0,1,199.09,44l3-3,0-4.89s-.74-.64-1.19-1.09c-.57.35-2.55,2-3,1.16-.32-.58.6-1.19.6-1.19l-6.34-1.65L190.55,37,192,38.24l-2.87,10.06Zm-72.4-18.38a3.18,3.18,0,1,0-3.4-3.17A3.29,3.29,0,0,0,121.11,33.29Z"/>
    <path d="M187.2,105.43c-.21-.33-.42-.67-.85-.67a1,1,0,0,0-.54,1.1,1.24,1.24,0,0,0,1.17.56C186.87,106.09,187.41,105.87,187.2,105.43Z"/>
    <path d="M133.46,135.76h0Z"/>
    <path d="M201,102.25c-.53-.12-1.38-.68-.73-1.33-.1-.77-1.05-1.11-1.38-.34-.66,1.43,1.48.67,1,2a1.29,1.29,0,0,1-1.29.87c-1.18-.12-.2-1.22-.84-1.66a.9.9,0,0,0-1.39.09c-.86,1.21,1.06.89.84,2,0,.33-.33.77-.76.66a1,1,0,0,1-.63-1.22,1.34,1.34,0,0,0-1.17-.56,1.93,1.93,0,0,0-1.08,1.21c-.32.33-.75.1-1.07,0-1.39.1-1.2,2.42-2.79,1.41-.43.33-.54.77-.86,1.1-.54.54-1.29.1-1.92,0-.11.55-.12,1.1-.65,1.43-1.29.43-1.17-.89-1.59-1.56-1.06-.89-1.29.87-1.93,1.2-2-1.34-1.52,2.2-3.43,1.18-1.07-.12-.77,1.65-1.94,1.42-.42-.22-1.28-.56-.84-1.22-.1-.33-.42-.78-.85-.78-1.82.86.84,1.33.51,2.55a1.32,1.32,0,0,1-1.18.65,1.07,1.07,0,0,1-.63-1.44,1.5,1.5,0,0,0-1.17-.56c-.22.22-.65.43-.65.88-.23.77-1,.43-1.5.31a1.09,1.09,0,0,0-.86.65,1.1,1.1,0,0,1-1.29.76c-1.6.09,0-1.43-1-1.89-.32-.45-.85-.12-1.07.21-.76,1.54,1.81.68,1,2.22a1.07,1.07,0,0,1-1.18.65,1,1,0,0,1-.63-1.33c-.21-.33-.53-.78-1.06-.67-.75.21-.76,1.1-1.19,1.53-1.58-1.45-1.61,1.31-3,1.08-.64,0-1.38-.56-.84-1.22a1,1,0,0,0-1-.78c-1.93,1.2,1.06,1.34.51,2.44a.94.94,0,0,1-1.18.76c-.64-.12-.63-.89-.52-1.44a1.35,1.35,0,0,0-1.17-.56c-.54.11-.76.77-1,1.21-.54.33-1.28-.12-1.82,0-.32.55-.65,1.43-1.4,1.31s-.74-.89-.73-1.55c-.32-.34-.64-.67-1.17-.56-.54.33-.65.88-1,1.31a2,2,0,0,1-1.92-.46c.22-.55.44-1.21-.2-1.55a.64.64,0,0,0-1,.32c-.87,1.32,1.49.79,1,2.11a.94.94,0,1,1-1.7-.68c-1.26-2.11-1.82,1-3.21.63-.32-.12-1-.45-.63-1-.1-.55-.41-1.11-.95-1.11s-.75.76-.87,1.31c.32.33.85.34,1.17.67a.94.94,0,0,1-.34,1.21c-2.25.64,0-2.21-1.79-2-1.6-.9-1,1.76-2.58,1.3-1.28-.34,0-1.66-1-2.11-1.59-.79-1,1.86-2.58,1.19-1.6.21-.2-1.55-1.26-2a.82.82,0,0,0-1.07.32c-.87,1.65,1.7.68,1.15,2.22a1.07,1.07,0,0,1-1.08.65c-1.07-.12-.52-1.44-.84-1.88-1.59-1.45-1.3,1.43-2.89,1.08a1,1,0,0,1-.63-1.44c-1.16-2.11-1.83.87-3,.53-.64-.12-1.28-.56-.84-1.33a1.07,1.07,0,0,0-1.06-.78c-2.15,1.53,1.48,1.23.72,2.66a1.16,1.16,0,0,1-1.29.76c-1.17-.34-.09-1.54-.84-2.1-1.7-1.12-1.19,1.64-2.57,1.19-1.27-.78-1.18,1-1.72,1.53-.43.1-.75-.12-1.17-.13a1.21,1.21,0,0,0-.76,1,1.4,1.4,0,0,0,1.06,1,.92.92,0,0,0,.75-.76.85.85,0,0,1,1.18-.76,1.27,1.27,0,0,1,.63,1.34c-.11.88-1.18.65-1.71.53a1.3,1.3,0,0,0-.55,1.21,1.17,1.17,0,0,0,1.06.78c.75,0,.65-1,1.08-1.42a1.2,1.2,0,0,1,1.38.56,1.39,1.39,0,0,1-.22,1.44c-.43.1-.75-.12-1.18-.12s-.64.43-.54.77a4.89,4.89,0,0,0,.74.78c.85.67.86-.66,1.18-1.09.53,0,1.07,0,1.38.57.32.33,0,.88,0,1.33.3.74,1.11.48,1.64.87a.21.21,0,0,1,0-.14l0-.26c.09-.53.22-1.32,1-1.31s1.16.51,1.16,1a.48.48,0,0,0,0-.06s0,.07,0,.07a1.52,1.52,0,0,1,0,.3,1,1,0,0,1-.19.63.72.72,0,0,1-.6.27l-1-.18a.69.69,0,0,1-.35-.22c.07.44-.53,1,0,1.4,1.58,2.12,1.19-1.42,2.89-.75.53.12.63.78.63,1.22,0,1-1.08.76-1.61.64.63,1.67,1.39-.31,2.56.58a1,1,0,0,1,.42,1.22,3,3,0,0,0,1.48.89c.11-.11.32-.21.33-.44a1.19,1.19,0,0,1,1.18-.76,1.11,1.11,0,0,1,.63,1.22c-.76,1.54,1.49.9,2,1.9.09,1.88,1.39-.1,2.24.24.75-.1,1,.78,1.27,1.23.52,1.66,1.5-.32,2.24-.2,1.07-.1,1.06,1.11,1.69,1.67.85.34,1.29-.87,2.14-.65s1,1,1.38,1.56a1.5,1.5,0,0,0,1.39-.54,2.56,2.56,0,0,1,2,.46c.1.55-.33,1-.44,1.32-.65.32-1.28-.12-1.92-.13-.33.44-.65,1.32-1.4,1s-.2-1.22-1.05-1.56c-1.27-.89-1.4,1.42-2.68.86-1-.12-.2-1.21-.95-1.55-1.27-1-1.4,1.2-2.68.75-1.07,0-.31-1.33-1.16-1.67-1.27-.89-1.18,1.2-2.35.75-1,0-.74-1.11-1.16-1.56-1.16-1.22-1.4.87-2.57.53-.43-.12-1-.67-.74-1.12-.62-2-2,0-3,0-1-.23-.42-1.33-1-1.89-1.06-1.22-1.61.65-2.47.75-.43,0-.74-.56-.63-1.11s.65-.43,1.18-.32c.11-.22.43-.1.32-.44-.74-1.33-1.39.54-2.46-.13-1.17-.12-.52-1.55-1.37-1.89-.53-.45-1.18.1-1.39.54-1.5.65-1.16-1.34-1.91-1.9-1.5.1-.73-1.66-1.8-2.22-.85-.67-1.18,1.09-2,.64-1-.23-.09-1.33-.73-1.77-1.39.1-1.38-1.45-2-2.34-1.39.1-1.05-1.55-2.12-2-.32-.45-.64.1-.86.32a.83.83,0,0,1-1.18-.12,1.16,1.16,0,0,1,.66-1.65c-.53-1-1.71.42-2.24-.79.23-1.33-.52-1.66-1.48-2.11-.09-1.66-1.9-1.9-2.43-3.34-.52-1.1-1.07.43-1.82.09a1.35,1.35,0,0,1-.73-1.55c-.1-.33-.43-.12-.75-.23a.74.74,0,0,0-.43.77,50.74,50.74,0,0,0,4.83,8.88,70,70,0,0,0,5.17,6.23c.74,1,1.8,1.34,2.33,2.34,7.94,7.59,17.62,12,28,14.29,1.6,0,3,1.13,4.48.48,1.59,1.12,4,.26,5.66.94a4.4,4.4,0,0,1,2.67,0c1.39-.54,3.2.14,4.49-.51a52,52,0,0,0,8.45-1.36,64.32,64.32,0,0,0,6.53-1.71c1.18-.76,2.68-.86,3.75-1.73a52.52,52.52,0,0,0,14.4-9.14,23,23,0,0,0,3.88-4c4-3.83,6.92-8.66,9.53-13.38.66-2.53,2.19-4.73,2.63-7.37C201.86,102.81,202.41,101.48,201,102.25Zm-68.9,14.34a.68.68,0,0,1,.89.35l0,0a.75.75,0,0,1-.1.69.65.65,0,0,1-.53.27.57.57,0,0,1-.28-.12s-.43-.39-.44-.43A.66.66,0,0,1,132.11,116.58Zm-2,1.63a.54.54,0,0,1,.48.39.75.75,0,0,1,0,.42.64.64,0,0,1-.59.21.35.35,0,0,1-.24-.1.56.56,0,0,1-.14-.63A.82.82,0,0,1,130.07,118.21Zm-2-2.69a1,1,0,0,1,.93-.2.78.78,0,0,1,.5.67.17.17,0,0,0,0-.05.14.14,0,0,1,0,.06h0a1,1,0,0,1,0,.28.77.77,0,0,1-.44.71.82.82,0,0,1-.35,0l-.78-.18s-.18-.48-.17-.4A.9.9,0,0,1,128.08,115.52Zm-.85,4.33a.56.56,0,0,1,.62-.26c.09,0,.24.28.27.37a.83.83,0,0,1,0,.46.63.63,0,0,1-.6.21.33.33,0,0,1-.23-.09A.56.56,0,0,1,127.23,119.86Zm-.58-2.92a.65.65,0,0,1,.39.61.31.31,0,0,0,0-.13c.2.43-.05.68-.28.91a.31.31,0,0,1-.23.09.91.91,0,0,1-.76-.31c-.11-.15-.14-.35-.06-.34a.63.63,0,0,1,.14-.71A.78.78,0,0,1,126.65,116.94Zm-2-2.88a.57.57,0,0,1,.33,0,1.33,1.33,0,0,1,1,.72h0s0,0,0,0h0s0,.87,0,.87a7.37,7.37,0,0,1-.81.66,1.05,1.05,0,0,1-1.16-1A1.36,1.36,0,0,1,124.7,114.05Zm-6.9,1.86a2.09,2.09,0,0,1,.06-.42,1.1,1.1,0,0,1,.73-1l1.07.19.48.74c0,.05,0,0,0,.06a1.49,1.49,0,0,1-.45,1.11.88.88,0,0,1-.73.19A1.25,1.25,0,0,1,117.79,115.92Zm2.51,3.23a1,1,0,0,1-.94-.92c-.16-.72.43-.92.86-1s1.05,0,1.05.87h0s0,0,0,0h0l-.33.82Zm1.58,2.31-.65,0s-.5-.61-.5-.63a.9.9,0,0,1,.65-1.14,1,1,0,0,1,1.07.42.31.31,0,0,1,.09.23C122.54,120.61,122.53,121.3,121.88,121.46Zm.08-4.17a.63.63,0,0,1-.18-.45,1,1,0,0,1,.05-.26l-.06-.29a7.28,7.28,0,0,1,.59-.51,1,1,0,0,1,.85.11.76.76,0,0,1,.31.63.29.29,0,0,0,0-.08s0,.05,0,.09h0a.79.79,0,0,1-.54,1A1,1,0,0,1,122,117.29Zm2.18,2.55a.92.92,0,0,1-.84-.66.73.73,0,0,1,.65-.72.63.63,0,0,1,.72.41.29.29,0,0,1,0,.1A.82.82,0,0,1,124.14,119.84Zm.54,2a.65.65,0,0,1,.3-.87.82.82,0,0,1,1,.26.31.31,0,0,1,0,.17c0,.58-.22.87-.5.83C125.15,122.45,124.88,122.12,124.68,121.85Zm2,3-.54-.18a.5.5,0,0,1-.31-.36c0-.64.22-1,.65-1.18a.8.8,0,0,1,.74.11.77.77,0,0,1,.32.63s0-.05,0-.08a.31.31,0,0,1,0,.08h0v0h0a.82.82,0,0,1,0,.17.88.88,0,0,1-.23.6A.67.67,0,0,1,126.66,124.83Zm2.55,1.47-.39.94a4.59,4.59,0,0,0-.51.25,1.12,1.12,0,0,1-.95-.21,1.1,1.1,0,0,1-.39-.88,1.15,1.15,0,0,1,.8-1.07,1.21,1.21,0,0,1,1.44.91C129.22,126.29,129.23,126.24,129.21,126.3Zm.28-3.36a.43.43,0,0,1-.35.15,1.1,1.1,0,0,1-.34,0,.76.76,0,0,1-.15-.89c.06-.12.36-.12.5-.1s.41.21.43.35v0A.91.91,0,0,1,129.49,122.94Zm.17,2.2a.78.78,0,0,1,.31-.78.82.82,0,0,1,.83-.07.65.65,0,0,1,.35.59h0c0,.64-.34.87-.65.86A.92.92,0,0,1,129.66,125.14Zm2.21,3.27-.83-.3-.23-.58c0-.66.35-1.08.76-1.06l.65.05.49.61v0a1.14,1.14,0,0,1,0,.23C132.75,127.89,132.31,128.17,131.86,128.41Zm2,2.14a.87.87,0,0,1-.91.18c-.26-.06-.95-.22-.82-.89a1.16,1.16,0,0,1,.76-1.09,1.11,1.11,0,0,1,1.21.71.26.26,0,0,1,0,.06A1.18,1.18,0,0,1,133.87,130.55Zm0-10.38a.77.77,0,0,1-.57-.17.53.53,0,0,1,0-.58c.08-.14.46-.11.61,0s.43.32.38.47A.49.49,0,0,1,133.84,120.17Zm1-3.56c-.41.14-.82-.06-1.06-.65,0-.37,0-1,.65-1.19a1.34,1.34,0,0,1,1,.33.69.69,0,0,1,.15.44.66.66,0,0,1,0,.12.88.88,0,0,1,0,.16.8.8,0,0,1-.17.5A.77.77,0,0,1,134.86,116.61Zm.64,1.88a.67.67,0,0,1,.38-.82.62.62,0,0,1,.73.38s0,0,0-.06a.32.32,0,0,1,.06.08s0,0,0,0a.41.41,0,0,1,.1.24.68.68,0,0,1-.25.47,1,1,0,0,1-.33.11A.53.53,0,0,1,135.49,118.49Zm2.27,12.15h0s-.11.63-.11.63a5.47,5.47,0,0,1-.63.47l-1-.26a5.07,5.07,0,0,0-.21-.53.92.92,0,0,1,.18-.78.82.82,0,0,1,.66-.32,1.06,1.06,0,0,1,1.07.78h0S137.77,130.68,137.77,130.64Zm.71-13c-.42,0-.85-.27-.83-.67a.74.74,0,0,1,.24-.82.84.84,0,0,1,.91-.09.69.69,0,0,1,.34.62s0,.07,0,.1A.92.92,0,0,1,138.48,117.65Zm1.53,2.11c-.1.05-.18.18-.27.12a4.35,4.35,0,0,1-.6-.41.52.52,0,0,1,.11-.64.72.72,0,0,1,.82,0,1.62,1.62,0,0,1,.18.32A.47.47,0,0,1,140,119.76Zm2.74-2.05-.42.77c-.06.11-.11.09-.23.09-.42,0-.74-.28-.72-.55a.74.74,0,0,1,.49-.93.46.46,0,0,1,.43.1l.42.39C142.83,117.67,142.82,117.58,142.75,117.71Zm1.11,2.87a.64.64,0,0,1-.6.22.33.33,0,0,1-.24-.1.56.56,0,0,1-.1-.69.56.56,0,0,1,.62-.26c.1,0,.24.28.28.37A.85.85,0,0,1,143.87,120.58Zm.7-3.43c-.41.13-.81-.06-1.05-.64a.94.94,0,0,1,.64-1l.87.25.19.52A1.05,1.05,0,0,1,144.57,117.14Zm1.62,2.07a.91.91,0,0,1-.46.17.56.56,0,0,1-.51-.28.79.79,0,0,1-.12-.27.56.56,0,0,1,.29-.49.67.67,0,0,1,.65,0s.12.15.14.17A.56.56,0,0,1,146.19,119.21Zm-39.38,1.47a.76.76,0,0,1-.62.31,3.53,3.53,0,0,1-.73-.45,1,1,0,0,1,.63-1.19c.42,0,.85.25.85.65h0a.81.81,0,0,1,0,.16A.84.84,0,0,1,106.81,120.69Zm11.34,9.07-.06.08s0,0,0-.06c-.2.35-.47.38-.83.34A.81.81,0,0,1,117,129a.57.57,0,0,1,.54-.34.75.75,0,0,1,.63.47.66.66,0,0,1,0,.24.62.62,0,0,1-.16.37S118.13,129.78,118.14,129.76Zm4.72,3.55c0,.12-.21.11-.34.11a.5.5,0,0,1-.36-.27.6.6,0,0,1,.23-.79c.12-.06.34,0,.44.13s.22.31.17.44Zm4,.49h0c0,.23,0,.51-.55.74-.18,0-.74,0-.71-.43a.68.68,0,0,1,.2-.79.73.73,0,0,1,.81-.1.53.53,0,0,1,.26.47.73.73,0,0,1,0,.1Zm3.52,1.5a4.77,4.77,0,0,1-.54.17.52.52,0,0,1-.62-.35,1,1,0,0,1,.63-1.18c.27,0,.74.23.74.66Zm3.59.86,0-.09c0,.12-.24.2-.36.23a.54.54,0,0,1-.43-.12.72.72,0,0,1-.06-.64.59.59,0,0,1,.19-.3.46.46,0,0,1,.67.25s0,.06,0,0S134.27,135.82,134,136.16Zm14.65-18.44a.77.77,0,0,1-.57.36.8.8,0,0,1-.73-.58.59.59,0,0,1,.21-.61.81.81,0,0,1,.83-.1.58.58,0,0,1,.33.53A1.59,1.59,0,0,1,148.66,117.72Zm1,2.55a.59.59,0,0,1-.37.08.57.57,0,0,1-.4-.4.69.69,0,0,1,.27-.61.57.57,0,0,1,.53,0,.67.67,0,0,1,.21.6C149.88,120.08,149.73,120.21,149.66,120.27Zm1.3-3.67a1,1,0,0,1-.46.18.92.92,0,0,1-.95-.38.59.59,0,0,1,0-.27l0-.26c0-.25,0-.7.5-.82a.94.94,0,0,1,.84.14.73.73,0,0,1,.31.55s0,0,0,0a.26.26,0,0,1,0,.09.3.3,0,0,0,0-.05.81.81,0,0,1-.16.74Zm1.4,1.75-.29.53c-.06.1-.13.11-.25.11-.52,0-.63-.24-.63-.44s.06-.57.21-.6l.47-.09.44.3C152.45,118.27,152.44,118.21,152.36,118.35Zm2.3-1a.7.7,0,0,1-.58.32.59.59,0,0,1-.29-.13s-.42-.39-.43-.41a.63.63,0,0,1,.14-.7.78.78,0,0,1,.83-.13.66.66,0,0,1,.4.62.33.33,0,0,0,0-.13.88.88,0,0,1,0,.13h0a.61.61,0,0,1,0,.12A.6.6,0,0,1,154.66,117.37Zm2.4-1.29a.65.65,0,0,1-.51.29.72.72,0,0,1-.67-.12.83.83,0,0,1-.36-.65.72.72,0,0,1,.21-.78,1,1,0,0,1,1-.15.76.76,0,0,1,.45.72h0a.91.91,0,0,1,0,.17A.82.82,0,0,1,157.06,116.08Zm.22,1.77c0,.14.23.57.37.6C157.3,118.37,157.28,117.85,157.28,117.85Zm.53.22c-.11.22-.21-.11-.21-.22C157.81,117.74,157.92,117.85,157.81,118.07Zm2.82-1.16a1.66,1.66,0,0,1-.32.25.56.56,0,0,1-.56,0,.65.65,0,0,1-.31-.52.6.6,0,0,1,.21-.63.72.72,0,0,1,.73-.08.58.58,0,0,1,.32.53.27.27,0,0,0,0-.13.45.45,0,0,1,0,.13h0a.59.59,0,0,1,0,.12A.65.65,0,0,1,160.63,116.91Zm2.27-1.11c-.1.08-.29.16-.38.08a.75.75,0,0,1-.67-.09.6.6,0,0,1-.26-.46.77.77,0,0,1,.49-1c.43-.21.78.15,1,.4a.32.32,0,0,1,.09.23A1.07,1.07,0,0,1,162.9,115.8Zm.4,1.7s0-.05,0-.09v-.06h0a1.42,1.42,0,0,0,0,.15,1,1,0,0,0,.19.47A.53.53,0,0,1,163.3,117.5Zm.61,0h0c0,.08,0,.15-.1.17a.16.16,0,0,1-.12,0h0l0,0a.15.15,0,0,1,0-.06l0,0,0,0c0,.06-.07.07-.08.14l0-.24.06.11a.62.62,0,0,0,0-.11v-.08h.07s0,0,0,0,.2.06.21.22h0s0-.17,0-.17,0,.11,0,.17Zm-.15-3.45a2.18,2.18,0,0,1,0-.36c0-.41,0-1,.65-1.2a1.25,1.25,0,0,1,1,.39.84.84,0,0,1,.19.54,1.3,1.3,0,0,1,0,.17,1.43,1.43,0,0,1,0,.21.89.89,0,0,1-.68.87A1,1,0,0,1,163.76,114.07Zm2.4,2.74a.77.77,0,0,1-.71-.52.53.53,0,0,1,.22-.76.69.69,0,0,1,.89.27,1.89,1.89,0,0,1,0,.27A.62.62,0,0,1,166.16,116.81Zm2.6-1.51c-.05.11-.13.1-.25.1a.79.79,0,0,1-.8-.41.61.61,0,0,1,.12-.69.84.84,0,0,1,.88-.22.58.58,0,0,1,.35.56ZM171,114c-.23.12-.59.16-1.07-.38a.68.68,0,0,1,.08-.78.9.9,0,0,1,.95-.18.65.65,0,0,1,.43.59.51.51,0,0,0,0-.12.27.27,0,0,1,0,.13v0C171.5,113.54,171.25,113.77,171,114Zm2-1.16a1.05,1.05,0,0,1-.95-.69c-.15-.68.11-1.23.64-1.36a.87.87,0,0,1,.86.25c.06,0,.28.25.29.33a1.49,1.49,0,0,1-.2,1.19A.81.81,0,0,1,173,112.79Zm1.88,1.8c0,.08,0,.07-.07.1l-.39.15a.37.37,0,0,1-.39,0c-.39-.4-.2-.71-.13-.8a.61.61,0,0,1,.77-.12A.55.55,0,0,1,174.91,114.59Zm2.38-1.57c0,.08-.09.22-.17.25l-.57.21c-.12,0-.14,0-.23-.1a.75.75,0,0,1-.24-.63c0-.18.15-.33.48-.46a.67.67,0,0,1,.71.41A.51.51,0,0,1,177.29,113Zm2-1a.59.59,0,0,1-.6,0,.58.58,0,0,1-.28-.51.49.49,0,0,1,.29-.63.67.67,0,0,1,.83.3,2.14,2.14,0,0,1,0,.25A.52.52,0,0,1,179.28,112Zm2.36-1.41a.74.74,0,0,1-.71,0,.47.47,0,0,1-.26-.38.63.63,0,0,1,.18-.75.74.74,0,0,1,.82,0,.59.59,0,0,1,.25.63.38.38,0,0,0,0-.08C181.92,110.55,181.69,110.66,181.64,110.62Zm2.65-1.54a.56.56,0,0,1-.43.25.83.83,0,0,1-1-.5,2.81,2.81,0,0,1,0-.32.94.94,0,0,1,.55-1,1.17,1.17,0,0,1,.92.39.74.74,0,0,1,.16.46,1.07,1.07,0,0,1,0,.14,1.21,1.21,0,0,1,0,.16A.74.74,0,0,1,184.28,109.09ZM187,110a.58.58,0,0,1,.08-.68.21.21,0,0,0-.05.16.84.84,0,0,0,.12.4s.07,0,.11.07l-.08-.29c0,.05.05.06.06.09v0a.28.28,0,0,1,.06-.2c.13,0,.17,0,.17.05a.16.16,0,0,1,.06.08.07.07,0,0,1,0,.09l0,0a.12.12,0,0,0,0,.08.22.22,0,0,1-.2,0h0s0,0,0-.05l0,0v0s0,0,0,0a.65.65,0,0,0,0,.18c.11.11.25.25.35.21A.5.5,0,0,1,187,110Zm3.25-1.56c-.08.17-.2.43-.48.47a.63.63,0,0,1-.55-.24,1,1,0,0,1-.14-.49c0-.19.16-.35.49-.49a.66.66,0,0,1,.71.41A.47.47,0,0,1,190.21,108.41Zm2-1a1.93,1.93,0,0,1-.26,0,.5.5,0,0,1-.6-.31.74.74,0,0,1,.1-.79.62.62,0,0,1,.62-.23.58.58,0,0,1,.41.5v.09A.6.6,0,0,1,192.25,107.41Zm2.26-1.31a.82.82,0,0,1-.42-.05c-.16-.06-.64-.23-.44-.54a.65.65,0,0,1,.06-.76.77.77,0,0,1,.83-.14.71.71,0,0,1,.46.67A.93.93,0,0,1,194.5,106.11Z"/>
    <path d="M133.46,135.75v0s0-.08,0-.12,0,0-.05,0S133.4,135.67,133.46,135.75Z"/>
    <path d="M116.08,113.82a1,1,0,0,0,.65-.88,1.29,1.29,0,0,0-1.16-.89c-.43.11-.65.66-.65,1.1A1.07,1.07,0,0,0,116.08,113.82Z"/>
    <path d="M114.51,110.93c.11,0,.32-.21.22-.54s-.64-.12-.75.21A.58.58,0,0,0,114.51,110.93Z"/>
    <path d="M124.12,111.57c.11,0,.32-.22.22-.55-.11-.12-.11-.23-.21-.23C123.69,111,123.69,111.46,124.12,111.57Z"/>
    <path d="M118.34,112.18c.11-.22.32-.33.33-.66s-.31-.55-.63-.67a1.52,1.52,0,0,0-.54.88C117.7,112,117.91,112.29,118.34,112.18Z"/>
    <path d="M112.25,112.46c.11-.11.43-.33.43-.55-.21-.66-1.06-.67-1.07.1A.72.72,0,0,0,112.25,112.46Z"/>
    <path d="M127.84,112.93c.22-.22.75-.44.65-.88s-1-.89-1.17-.23C126.89,112.15,127.42,112.81,127.84,112.93Z"/>
    <path d="M121.81,123.67l.06.06s0,0,0,0Z"/>
    <path d="M110,113.76a2.4,2.4,0,0,0,.32-.55c-.21-.34-1-.56-.85.1C109.57,113.53,109.68,113.76,110,113.76Z"/>
    <path d="M113.61,115.12c.43-.22.86-.55.76-1.1a.93.93,0,0,0-1-.56,1,1,0,0,0-.65.88C113,114.67,113.19,115.11,113.61,115.12Z"/>
    <path d="M111.68,116a.71.71,0,0,0,.11-.44c-.1-.22-.32-.55-.64-.45S111.26,115.87,111.68,116Z"/>
    <path d="M178.42,107.77c.21,0,.32-.33.33-.55-.21-.22-.32-.45-.53-.45-.22.22-.64.32-.54.65S178.1,108.1,178.42,107.77Z"/>
    <path d="M180.57,106.36c.11-.11.33-.22.33-.44a.61.61,0,0,0-.43-.34C179.83,105.8,180.25,106.25,180.57,106.36Z"/>
    <path d="M170,109.79c.21-.11.54-.44.43-.77a.63.63,0,0,0-1.18.21A1,1,0,0,0,170,109.79Z"/>
    <path d="M164.19,109.63c-.11,0-.21-.22-.32-.22s-.43.33-.11.55C164,110,164,109.73,164.19,109.63Z"/>
    <path d="M188.92,104.56c.21-.22.43-.33.43-.55-.21-.67-1-.45-1.07.1C188.39,104.33,188.59,104.78,188.92,104.56Z"/>
    <path d="M133.83,112.22c.11-.11.54-.22.43-.55a.59.59,0,0,0-.53-.33c-.21.11-.43.33-.32.55S133.62,112.21,133.83,112.22Z"/>
    <path d="M191.39,102.59c-.1-.44-.64-.22-.54.22.11.11.21.22.32.22S191.5,102.82,191.39,102.59Z"/>
    <path d="M201.14,99.71a.88.88,0,0,0,.64.45c.32,0,.43-.44.43-.66C202,98.61,201,99,201.14,99.71Z"/>
    <path d="M150,111.92c-.21-.11-.32-.44-.53-.44s-.54.55-.22.77C149.53,112.69,149.86,112.15,150,111.92Z"/>
    <path d="M143.55,112.86a.61.61,0,0,0,.54-.66.62.62,0,0,0-1.17.1C143,112.52,143.22,112.86,143.55,112.86Z"/>
    <path d="M153.37,113.72a1.22,1.22,0,0,0,.54-1.1c-.21-.22-.53-.67-1-.56-.22.22-.65.54-.54,1S152.94,113.83,153.37,113.72Z"/>
    <path d="M137.45,113.46a.75.75,0,0,0,.65-.88c0-.33-.42-.44-.74-.56a.76.76,0,0,0-.54.88C136.92,113.13,137.24,113.46,137.45,113.46Z"/>
    <path d="M161.61,111.59c.21-.11.64-.32.54-.66s-.42-.66-.74-.45-.54.21-.43.55A.68.68,0,0,0,161.61,111.59Z"/>
    <path d="M155.52,111.87c.22-.11.43-.22.43-.55-.21-.55-.85-.23-.86.21C155.2,111.64,155.31,112,155.52,111.87Z"/>
    <path d="M187.2,105.43c-.21-.33-.42-.67-.85-.67a1,1,0,0,0-.54,1.1,1.24,1.24,0,0,0,1.17.56C186.87,106.09,187.41,105.87,187.2,105.43Z"/>
    <path d="M133.46,135.76h0Z"/>
    <path d="M201,102.25c-.53-.12-1.38-.68-.73-1.33-.1-.77-1.05-1.11-1.38-.34-.66,1.43,1.48.67,1,2a1.29,1.29,0,0,1-1.29.87c-1.18-.12-.2-1.22-.84-1.66a.9.9,0,0,0-1.39.09c-.86,1.21,1.06.89.84,2,0,.33-.33.77-.76.66a1,1,0,0,1-.63-1.22,1.34,1.34,0,0,0-1.17-.56,1.93,1.93,0,0,0-1.08,1.21c-.32.33-.75.1-1.07,0-1.39.1-1.2,2.42-2.79,1.41-.43.33-.54.77-.86,1.1-.54.54-1.29.1-1.92,0-.11.55-.12,1.1-.65,1.43-1.29.43-1.17-.89-1.59-1.56-1.06-.89-1.29.87-1.93,1.2-2-1.34-1.52,2.2-3.43,1.18-1.07-.12-.77,1.65-1.94,1.42-.42-.22-1.28-.56-.84-1.22-.1-.33-.42-.78-.85-.78-1.82.86.84,1.33.51,2.55a1.32,1.32,0,0,1-1.18.65,1.07,1.07,0,0,1-.63-1.44,1.5,1.5,0,0,0-1.17-.56c-.22.22-.65.43-.65.88-.23.77-1,.43-1.5.31a1.09,1.09,0,0,0-.86.65,1.1,1.1,0,0,1-1.29.76c-1.6.09,0-1.43-1-1.89-.32-.45-.85-.12-1.07.21-.76,1.54,1.81.68,1,2.22a1.07,1.07,0,0,1-1.18.65,1,1,0,0,1-.63-1.33c-.21-.33-.53-.78-1.06-.67-.75.21-.76,1.1-1.19,1.53-1.58-1.45-1.61,1.31-3,1.08-.64,0-1.38-.56-.84-1.22a1,1,0,0,0-1-.78c-1.93,1.2,1.06,1.34.51,2.44a.94.94,0,0,1-1.18.76c-.64-.12-.63-.89-.52-1.44a1.35,1.35,0,0,0-1.17-.56c-.54.11-.76.77-1,1.21-.54.33-1.28-.12-1.82,0-.32.55-.65,1.43-1.4,1.31s-.74-.89-.73-1.55c-.32-.34-.64-.67-1.17-.56-.54.33-.65.88-1,1.31a2,2,0,0,1-1.92-.46c.22-.55.44-1.21-.2-1.55a.64.64,0,0,0-1,.32c-.87,1.32,1.49.79,1,2.11a.94.94,0,1,1-1.7-.68c-1.26-2.11-1.82,1-3.21.63-.32-.12-1-.45-.63-1-.1-.55-.41-1.11-.95-1.11s-.75.76-.87,1.31c.32.33.85.34,1.17.67a.94.94,0,0,1-.34,1.21c-2.25.64,0-2.21-1.79-2-1.6-.9-1,1.76-2.58,1.3-1.28-.34,0-1.66-1-2.11-1.59-.79-1,1.86-2.58,1.19-1.6.21-.2-1.55-1.26-2a.82.82,0,0,0-1.07.32c-.87,1.65,1.7.68,1.15,2.22a1.07,1.07,0,0,1-1.08.65c-1.07-.12-.52-1.44-.84-1.88-1.59-1.45-1.3,1.43-2.89,1.08a1,1,0,0,1-.63-1.44c-1.16-2.11-1.83.87-3,.53-.64-.12-1.28-.56-.84-1.33a1.07,1.07,0,0,0-1.06-.78c-2.15,1.53,1.48,1.23.72,2.66a1.16,1.16,0,0,1-1.29.76c-1.17-.34-.09-1.54-.84-2.1-1.7-1.12-1.19,1.64-2.57,1.19-1.27-.78-1.18,1-1.72,1.53-.43.1-.75-.12-1.17-.13a1.21,1.21,0,0,0-.76,1,1.4,1.4,0,0,0,1.06,1,.92.92,0,0,0,.75-.76.85.85,0,0,1,1.18-.76,1.27,1.27,0,0,1,.63,1.34c-.11.88-1.18.65-1.71.53a1.3,1.3,0,0,0-.55,1.21,1.17,1.17,0,0,0,1.06.78c.75,0,.65-1,1.08-1.42a1.2,1.2,0,0,1,1.38.56,1.39,1.39,0,0,1-.22,1.44c-.43.1-.75-.12-1.18-.12s-.64.43-.54.77a4.89,4.89,0,0,0,.74.78c.85.67.86-.66,1.18-1.09.53,0,1.07,0,1.38.57.32.33,0,.88,0,1.33.3.74,1.11.48,1.64.87a.21.21,0,0,1,0-.14l0-.26c.09-.53.22-1.32,1-1.31s1.16.51,1.16,1a.48.48,0,0,0,0-.06s0,.07,0,.07a1.52,1.52,0,0,1,0,.3,1,1,0,0,1-.19.63.72.72,0,0,1-.6.27l-1-.18a.69.69,0,0,1-.35-.22c.07.44-.53,1,0,1.4,1.58,2.12,1.19-1.42,2.89-.75.53.12.63.78.63,1.22,0,1-1.08.76-1.61.64.63,1.67,1.39-.31,2.56.58a1,1,0,0,1,.42,1.22,3,3,0,0,0,1.48.89c.11-.11.32-.21.33-.44a1.19,1.19,0,0,1,1.18-.76,1.11,1.11,0,0,1,.63,1.22c-.76,1.54,1.49.9,2,1.9.09,1.88,1.39-.1,2.24.24.75-.1,1,.78,1.27,1.23.52,1.66,1.5-.32,2.24-.2,1.07-.1,1.06,1.11,1.69,1.67.85.34,1.29-.87,2.14-.65s1,1,1.38,1.56a1.5,1.5,0,0,0,1.39-.54,2.56,2.56,0,0,1,2,.46c.1.55-.33,1-.44,1.32-.65.32-1.28-.12-1.92-.13-.33.44-.65,1.32-1.4,1s-.2-1.22-1.05-1.56c-1.27-.89-1.4,1.42-2.68.86-1-.12-.2-1.21-.95-1.55-1.27-1-1.4,1.2-2.68.75-1.07,0-.31-1.33-1.16-1.67-1.27-.89-1.18,1.2-2.35.75-1,0-.74-1.11-1.16-1.56-1.16-1.22-1.4.87-2.57.53-.43-.12-1-.67-.74-1.12-.62-2-2,0-3,0-1-.23-.42-1.33-1-1.89-1.06-1.22-1.61.65-2.47.75-.43,0-.74-.56-.63-1.11s.65-.43,1.18-.32c.11-.22.43-.1.32-.44-.74-1.33-1.39.54-2.46-.13-1.17-.12-.52-1.55-1.37-1.89-.53-.45-1.18.1-1.39.54-1.5.65-1.16-1.34-1.91-1.9-1.5.1-.73-1.66-1.8-2.22-.85-.67-1.18,1.09-2,.64-1-.23-.09-1.33-.73-1.77-1.39.1-1.38-1.45-2-2.34-1.39.1-1.05-1.55-2.12-2-.32-.45-.64.1-.86.32a.83.83,0,0,1-1.18-.12,1.16,1.16,0,0,1,.66-1.65c-.53-1-1.71.42-2.24-.79.23-1.33-.52-1.66-1.48-2.11-.09-1.66-1.9-1.9-2.43-3.34-.52-1.1-1.07.43-1.82.09a1.35,1.35,0,0,1-.73-1.55c-.1-.33-.43-.12-.75-.23a.74.74,0,0,0-.43.77,50.74,50.74,0,0,0,4.83,8.88,70,70,0,0,0,5.17,6.23c.74,1,1.8,1.34,2.33,2.34,7.94,7.59,17.62,12,28,14.29,1.6,0,3,1.13,4.48.48,1.59,1.12,4,.26,5.66.94a4.4,4.4,0,0,1,2.67,0c1.39-.54,3.2.14,4.49-.51a52,52,0,0,0,8.45-1.36,64.32,64.32,0,0,0,6.53-1.71c1.18-.76,2.68-.86,3.75-1.73a52.52,52.52,0,0,0,14.4-9.14,23,23,0,0,0,3.88-4c4-3.83,6.92-8.66,9.53-13.38.66-2.53,2.19-4.73,2.63-7.37C201.86,102.81,202.41,101.48,201,102.25Zm-68.9,14.34a.68.68,0,0,1,.89.35l0,0a.75.75,0,0,1-.1.69.65.65,0,0,1-.53.27.57.57,0,0,1-.28-.12s-.43-.39-.44-.43A.66.66,0,0,1,132.11,116.58Zm-2,1.63a.54.54,0,0,1,.48.39.75.75,0,0,1,0,.42.64.64,0,0,1-.59.21.35.35,0,0,1-.24-.1.56.56,0,0,1-.14-.63A.82.82,0,0,1,130.07,118.21Zm-2-2.69a1,1,0,0,1,.93-.2.78.78,0,0,1,.5.67.17.17,0,0,0,0-.05.14.14,0,0,1,0,.06h0a1,1,0,0,1,0,.28.77.77,0,0,1-.44.71.82.82,0,0,1-.35,0l-.78-.18s-.18-.48-.17-.4A.9.9,0,0,1,128.08,115.52Zm-.85,4.33a.56.56,0,0,1,.62-.26c.09,0,.24.28.27.37a.83.83,0,0,1,0,.46.63.63,0,0,1-.6.21.33.33,0,0,1-.23-.09A.56.56,0,0,1,127.23,119.86Zm-.58-2.92a.65.65,0,0,1,.39.61.31.31,0,0,0,0-.13c.2.43-.05.68-.28.91a.31.31,0,0,1-.23.09.91.91,0,0,1-.76-.31c-.11-.15-.14-.35-.06-.34a.63.63,0,0,1,.14-.71A.78.78,0,0,1,126.65,116.94Zm-2-2.88a.57.57,0,0,1,.33,0,1.33,1.33,0,0,1,1,.72h0s0,0,0,0h0s0,.87,0,.87a7.37,7.37,0,0,1-.81.66,1.05,1.05,0,0,1-1.16-1A1.36,1.36,0,0,1,124.7,114.05Zm-6.9,1.86a2.09,2.09,0,0,1,.06-.42,1.1,1.1,0,0,1,.73-1l1.07.19.48.74c0,.05,0,0,0,.06a1.49,1.49,0,0,1-.45,1.11.88.88,0,0,1-.73.19A1.25,1.25,0,0,1,117.79,115.92Zm2.51,3.23a1,1,0,0,1-.94-.92c-.16-.72.43-.92.86-1s1.05,0,1.05.87h0s0,0,0,0h0l-.33.82Zm1.58,2.31-.65,0s-.5-.61-.5-.63a.9.9,0,0,1,.65-1.14,1,1,0,0,1,1.07.42.31.31,0,0,1,.09.23C122.54,120.61,122.53,121.3,121.88,121.46Zm.08-4.17a.63.63,0,0,1-.18-.45,1,1,0,0,1,.05-.26l-.06-.29a7.28,7.28,0,0,1,.59-.51,1,1,0,0,1,.85.11.76.76,0,0,1,.31.63.29.29,0,0,0,0-.08s0,.05,0,.09h0a.79.79,0,0,1-.54,1A1,1,0,0,1,122,117.29Zm2.18,2.55a.92.92,0,0,1-.84-.66.73.73,0,0,1,.65-.72.63.63,0,0,1,.72.41.29.29,0,0,1,0,.1A.82.82,0,0,1,124.14,119.84Zm.54,2a.65.65,0,0,1,.3-.87.82.82,0,0,1,1,.26.31.31,0,0,1,0,.17c0,.58-.22.87-.5.83C125.15,122.45,124.88,122.12,124.68,121.85Zm2,3-.54-.18a.5.5,0,0,1-.31-.36c0-.64.22-1,.65-1.18a.8.8,0,0,1,.74.11.77.77,0,0,1,.32.63s0-.05,0-.08a.31.31,0,0,1,0,.08h0v0h0a.82.82,0,0,1,0,.17.88.88,0,0,1-.23.6A.67.67,0,0,1,126.66,124.83Zm2.55,1.47-.39.94a4.59,4.59,0,0,0-.51.25,1.12,1.12,0,0,1-.95-.21,1.1,1.1,0,0,1-.39-.88,1.15,1.15,0,0,1,.8-1.07,1.21,1.21,0,0,1,1.44.91C129.22,126.29,129.23,126.24,129.21,126.3Zm.28-3.36a.43.43,0,0,1-.35.15,1.1,1.1,0,0,1-.34,0,.76.76,0,0,1-.15-.89c.06-.12.36-.12.5-.1s.41.21.43.35v0A.91.91,0,0,1,129.49,122.94Zm.17,2.2a.78.78,0,0,1,.31-.78.82.82,0,0,1,.83-.07.65.65,0,0,1,.35.59h0c0,.64-.34.87-.65.86A.92.92,0,0,1,129.66,125.14Zm2.21,3.27-.83-.3-.23-.58c0-.66.35-1.08.76-1.06l.65.05.49.61v0a1.14,1.14,0,0,1,0,.23C132.75,127.89,132.31,128.17,131.86,128.41Zm2,2.14a.87.87,0,0,1-.91.18c-.26-.06-.95-.22-.82-.89a1.16,1.16,0,0,1,.76-1.09,1.11,1.11,0,0,1,1.21.71.26.26,0,0,1,0,.06A1.18,1.18,0,0,1,133.87,130.55Zm0-10.38a.77.77,0,0,1-.57-.17.53.53,0,0,1,0-.58c.08-.14.46-.11.61,0s.43.32.38.47A.49.49,0,0,1,133.84,120.17Zm1-3.56c-.41.14-.82-.06-1.06-.65,0-.37,0-1,.65-1.19a1.34,1.34,0,0,1,1,.33.69.69,0,0,1,.15.44.66.66,0,0,1,0,.12.88.88,0,0,1,0,.16.8.8,0,0,1-.17.5A.77.77,0,0,1,134.86,116.61Zm.64,1.88a.67.67,0,0,1,.38-.82.62.62,0,0,1,.73.38s0,0,0-.06a.32.32,0,0,1,.06.08s0,0,0,0a.41.41,0,0,1,.1.24.68.68,0,0,1-.25.47,1,1,0,0,1-.33.11A.53.53,0,0,1,135.49,118.49Zm2.27,12.15h0s-.11.63-.11.63a5.47,5.47,0,0,1-.63.47l-1-.26a5.07,5.07,0,0,0-.21-.53.92.92,0,0,1,.18-.78.82.82,0,0,1,.66-.32,1.06,1.06,0,0,1,1.07.78h0S137.77,130.68,137.77,130.64Zm.71-13c-.42,0-.85-.27-.83-.67a.74.74,0,0,1,.24-.82.84.84,0,0,1,.91-.09.69.69,0,0,1,.34.62s0,.07,0,.1A.92.92,0,0,1,138.48,117.65Zm1.53,2.11c-.1.05-.18.18-.27.12a4.35,4.35,0,0,1-.6-.41.52.52,0,0,1,.11-.64.72.72,0,0,1,.82,0,1.62,1.62,0,0,1,.18.32A.47.47,0,0,1,140,119.76Zm2.74-2.05-.42.77c-.06.11-.11.09-.23.09-.42,0-.74-.28-.72-.55a.74.74,0,0,1,.49-.93.46.46,0,0,1,.43.1l.42.39C142.83,117.67,142.82,117.58,142.75,117.71Zm1.11,2.87a.64.64,0,0,1-.6.22.33.33,0,0,1-.24-.1.56.56,0,0,1-.1-.69.56.56,0,0,1,.62-.26c.1,0,.24.28.28.37A.85.85,0,0,1,143.87,120.58Zm.7-3.43c-.41.13-.81-.06-1.05-.64a.94.94,0,0,1,.64-1l.87.25.19.52A1.05,1.05,0,0,1,144.57,117.14Zm1.62,2.07a.91.91,0,0,1-.46.17.56.56,0,0,1-.51-.28.79.79,0,0,1-.12-.27.56.56,0,0,1,.29-.49.67.67,0,0,1,.65,0s.12.15.14.17A.56.56,0,0,1,146.19,119.21Zm-39.38,1.47a.76.76,0,0,1-.62.31,3.53,3.53,0,0,1-.73-.45,1,1,0,0,1,.63-1.19c.42,0,.85.25.85.65h0a.81.81,0,0,1,0,.16A.84.84,0,0,1,106.81,120.69Zm11.34,9.07-.06.08s0,0,0-.06c-.2.35-.47.38-.83.34A.81.81,0,0,1,117,129a.57.57,0,0,1,.54-.34.75.75,0,0,1,.63.47.66.66,0,0,1,0,.24.62.62,0,0,1-.16.37S118.13,129.78,118.14,129.76Zm4.72,3.55c0,.12-.21.11-.34.11a.5.5,0,0,1-.36-.27.6.6,0,0,1,.23-.79c.12-.06.34,0,.44.13s.22.31.17.44Zm4,.49h0c0,.23,0,.51-.55.74-.18,0-.74,0-.71-.43a.68.68,0,0,1,.2-.79.73.73,0,0,1,.81-.1.53.53,0,0,1,.26.47.73.73,0,0,1,0,.1Zm3.52,1.5a4.77,4.77,0,0,1-.54.17.52.52,0,0,1-.62-.35,1,1,0,0,1,.63-1.18c.27,0,.74.23.74.66Zm3.59.86,0-.09c0,.12-.24.2-.36.23a.54.54,0,0,1-.43-.12.72.72,0,0,1-.06-.64.59.59,0,0,1,.19-.3.46.46,0,0,1,.67.25s0,.06,0,0S134.27,135.82,134,136.16Zm14.65-18.44a.77.77,0,0,1-.57.36.8.8,0,0,1-.73-.58.59.59,0,0,1,.21-.61.81.81,0,0,1,.83-.1.58.58,0,0,1,.33.53A1.59,1.59,0,0,1,148.66,117.72Zm1,2.55a.59.59,0,0,1-.37.08.57.57,0,0,1-.4-.4.69.69,0,0,1,.27-.61.57.57,0,0,1,.53,0,.67.67,0,0,1,.21.6C149.88,120.08,149.73,120.21,149.66,120.27Zm1.3-3.67a1,1,0,0,1-.46.18.92.92,0,0,1-.95-.38.59.59,0,0,1,0-.27l0-.26c0-.25,0-.7.5-.82a.94.94,0,0,1,.84.14.73.73,0,0,1,.31.55s0,0,0,0a.26.26,0,0,1,0,.09.3.3,0,0,0,0-.05.81.81,0,0,1-.16.74Zm1.4,1.75-.29.53c-.06.1-.13.11-.25.11-.52,0-.63-.24-.63-.44s.06-.57.21-.6l.47-.09.44.3C152.45,118.27,152.44,118.21,152.36,118.35Zm2.3-1a.7.7,0,0,1-.58.32.59.59,0,0,1-.29-.13s-.42-.39-.43-.41a.63.63,0,0,1,.14-.7.78.78,0,0,1,.83-.13.66.66,0,0,1,.4.62.33.33,0,0,0,0-.13.88.88,0,0,1,0,.13h0a.61.61,0,0,1,0,.12A.6.6,0,0,1,154.66,117.37Zm2.4-1.29a.65.65,0,0,1-.51.29.72.72,0,0,1-.67-.12.83.83,0,0,1-.36-.65.72.72,0,0,1,.21-.78,1,1,0,0,1,1-.15.76.76,0,0,1,.45.72h0a.91.91,0,0,1,0,.17A.82.82,0,0,1,157.06,116.08Zm.22,1.77c0,.14.23.57.37.6C157.3,118.37,157.28,117.85,157.28,117.85Zm.53.22c-.11.22-.21-.11-.21-.22C157.81,117.74,157.92,117.85,157.81,118.07Zm2.82-1.16a1.66,1.66,0,0,1-.32.25.56.56,0,0,1-.56,0,.65.65,0,0,1-.31-.52.6.6,0,0,1,.21-.63.72.72,0,0,1,.73-.08.58.58,0,0,1,.32.53.27.27,0,0,0,0-.13.45.45,0,0,1,0,.13h0a.59.59,0,0,1,0,.12A.65.65,0,0,1,160.63,116.91Zm2.27-1.11c-.1.08-.29.16-.38.08a.75.75,0,0,1-.67-.09.6.6,0,0,1-.26-.46.77.77,0,0,1,.49-1c.43-.21.78.15,1,.4a.32.32,0,0,1,.09.23A1.07,1.07,0,0,1,162.9,115.8Zm.4,1.7s0-.05,0-.09v-.06h0a1.42,1.42,0,0,0,0,.15,1,1,0,0,0,.19.47A.53.53,0,0,1,163.3,117.5Zm.61,0h0c0,.08,0,.15-.1.17a.16.16,0,0,1-.12,0h0l0,0a.15.15,0,0,1,0-.06l0,0,0,0c0,.06-.07.07-.08.14l0-.24.06.11a.62.62,0,0,0,0-.11v-.08h.07s0,0,0,0,.2.06.21.22h0s0-.17,0-.17,0,.11,0,.17Zm-.15-3.45a2.18,2.18,0,0,1,0-.36c0-.41,0-1,.65-1.2a1.25,1.25,0,0,1,1,.39.84.84,0,0,1,.19.54,1.3,1.3,0,0,1,0,.17,1.43,1.43,0,0,1,0,.21.89.89,0,0,1-.68.87A1,1,0,0,1,163.76,114.07Zm2.4,2.74a.77.77,0,0,1-.71-.52.53.53,0,0,1,.22-.76.69.69,0,0,1,.89.27,1.89,1.89,0,0,1,0,.27A.62.62,0,0,1,166.16,116.81Zm2.6-1.51c-.05.11-.13.1-.25.1a.79.79,0,0,1-.8-.41.61.61,0,0,1,.12-.69.84.84,0,0,1,.88-.22.58.58,0,0,1,.35.56ZM171,114c-.23.12-.59.16-1.07-.38a.68.68,0,0,1,.08-.78.9.9,0,0,1,.95-.18.65.65,0,0,1,.43.59.51.51,0,0,0,0-.12.27.27,0,0,1,0,.13v0C171.5,113.54,171.25,113.77,171,114Zm2-1.16a1.05,1.05,0,0,1-.95-.69c-.15-.68.11-1.23.64-1.36a.87.87,0,0,1,.86.25c.06,0,.28.25.29.33a1.49,1.49,0,0,1-.2,1.19A.81.81,0,0,1,173,112.79Zm1.88,1.8c0,.08,0,.07-.07.1l-.39.15a.37.37,0,0,1-.39,0c-.39-.4-.2-.71-.13-.8a.61.61,0,0,1,.77-.12A.55.55,0,0,1,174.91,114.59Zm2.38-1.57c0,.08-.09.22-.17.25l-.57.21c-.12,0-.14,0-.23-.1a.75.75,0,0,1-.24-.63c0-.18.15-.33.48-.46a.67.67,0,0,1,.71.41A.51.51,0,0,1,177.29,113Zm2-1a.59.59,0,0,1-.6,0,.58.58,0,0,1-.28-.51.49.49,0,0,1,.29-.63.67.67,0,0,1,.83.3,2.14,2.14,0,0,1,0,.25A.52.52,0,0,1,179.28,112Zm2.36-1.41a.74.74,0,0,1-.71,0,.47.47,0,0,1-.26-.38.63.63,0,0,1,.18-.75.74.74,0,0,1,.82,0,.59.59,0,0,1,.25.63.38.38,0,0,0,0-.08C181.92,110.55,181.69,110.66,181.64,110.62Zm2.65-1.54a.56.56,0,0,1-.43.25.83.83,0,0,1-1-.5,2.81,2.81,0,0,1,0-.32.94.94,0,0,1,.55-1,1.17,1.17,0,0,1,.92.39.74.74,0,0,1,.16.46,1.07,1.07,0,0,1,0,.14,1.21,1.21,0,0,1,0,.16A.74.74,0,0,1,184.28,109.09ZM187,110a.58.58,0,0,1,.08-.68.21.21,0,0,0-.05.16.84.84,0,0,0,.12.4s.07,0,.11.07l-.08-.29c0,.05.05.06.06.09v0a.28.28,0,0,1,.06-.2c.13,0,.17,0,.17.05a.16.16,0,0,1,.06.08.07.07,0,0,1,0,.09l0,0a.12.12,0,0,0,0,.08.22.22,0,0,1-.2,0h0s0,0,0-.05l0,0v0s0,0,0,0a.65.65,0,0,0,0,.18c.11.11.25.25.35.21A.5.5,0,0,1,187,110Zm3.25-1.56c-.08.17-.2.43-.48.47a.63.63,0,0,1-.55-.24,1,1,0,0,1-.14-.49c0-.19.16-.35.49-.49a.66.66,0,0,1,.71.41A.47.47,0,0,1,190.21,108.41Zm2-1a1.93,1.93,0,0,1-.26,0,.5.5,0,0,1-.6-.31.74.74,0,0,1,.1-.79.62.62,0,0,1,.62-.23.58.58,0,0,1,.41.5v.09A.6.6,0,0,1,192.25,107.41Zm2.26-1.31a.82.82,0,0,1-.42-.05c-.16-.06-.64-.23-.44-.54a.65.65,0,0,1,.06-.76.77.77,0,0,1,.83-.14.71.71,0,0,1,.46.67A.93.93,0,0,1,194.5,106.11Z"/>
    <path d="M133.46,135.75v0s0-.08,0-.12,0,0-.05,0S133.4,135.67,133.46,135.75Z"/>
    <path d="M116.08,113.82a1,1,0,0,0,.65-.88,1.29,1.29,0,0,0-1.16-.89c-.43.11-.65.66-.65,1.1A1.07,1.07,0,0,0,116.08,113.82Z"/>
    <path d="M114.51,110.93c.11,0,.32-.21.22-.54s-.64-.12-.75.21A.58.58,0,0,0,114.51,110.93Z"/>
    <path d="M124.12,111.57c.11,0,.32-.22.22-.55-.11-.12-.11-.23-.21-.23C123.69,111,123.69,111.46,124.12,111.57Z"/>
    <path d="M118.34,112.18c.11-.22.32-.33.33-.66s-.31-.55-.63-.67a1.52,1.52,0,0,0-.54.88C117.7,112,117.91,112.29,118.34,112.18Z"/>
    <path d="M112.25,112.46c.11-.11.43-.33.43-.55-.21-.66-1.06-.67-1.07.1A.72.72,0,0,0,112.25,112.46Z"/>
    <path d="M127.84,112.93c.22-.22.75-.44.65-.88s-1-.89-1.17-.23C126.89,112.15,127.42,112.81,127.84,112.93Z"/>
    <path d="M121.81,123.67l.06.06s0,0,0,0Z"/>
    <path d="M110,113.76a2.4,2.4,0,0,0,.32-.55c-.21-.34-1-.56-.85.1C109.57,113.53,109.68,113.76,110,113.76Z"/>
    <path d="M113.61,115.12c.43-.22.86-.55.76-1.1a.93.93,0,0,0-1-.56,1,1,0,0,0-.65.88C113,114.67,113.19,115.11,113.61,115.12Z"/>
    <path d="M111.68,116a.71.71,0,0,0,.11-.44c-.1-.22-.32-.55-.64-.45S111.26,115.87,111.68,116Z"/>
    <path d="M178.42,107.77c.21,0,.32-.33.33-.55-.21-.22-.32-.45-.53-.45-.22.22-.64.32-.54.65S178.1,108.1,178.42,107.77Z"/>
    <path d="M180.57,106.36c.11-.11.33-.22.33-.44a.61.61,0,0,0-.43-.34C179.83,105.8,180.25,106.25,180.57,106.36Z"/>
    <path d="M170,109.79c.21-.11.54-.44.43-.77a.63.63,0,0,0-1.18.21A1,1,0,0,0,170,109.79Z"/>
    <path d="M164.19,109.63c-.11,0-.21-.22-.32-.22s-.43.33-.11.55C164,110,164,109.73,164.19,109.63Z"/>
    <path d="M188.92,104.56c.21-.22.43-.33.43-.55-.21-.67-1-.45-1.07.1C188.39,104.33,188.59,104.78,188.92,104.56Z"/>
    <path d="M133.83,112.22c.11-.11.54-.22.43-.55a.59.59,0,0,0-.53-.33c-.21.11-.43.33-.32.55S133.62,112.21,133.83,112.22Z"/>
    <path d="M191.39,102.59c-.1-.44-.64-.22-.54.22.11.11.21.22.32.22S191.5,102.82,191.39,102.59Z"/>
    <path d="M201.14,99.71a.88.88,0,0,0,.64.45c.32,0,.43-.44.43-.66C202,98.61,201,99,201.14,99.71Z"/>
    <path d="M150,111.92c-.21-.11-.32-.44-.53-.44s-.54.55-.22.77C149.53,112.69,149.86,112.15,150,111.92Z"/>
    <path d="M143.55,112.86a.61.61,0,0,0,.54-.66.62.62,0,0,0-1.17.1C143,112.52,143.22,112.86,143.55,112.86Z"/>
    <path d="M153.37,113.72a1.22,1.22,0,0,0,.54-1.1c-.21-.22-.53-.67-1-.56-.22.22-.65.54-.54,1S152.94,113.83,153.37,113.72Z"/>
    <path d="M137.45,113.46a.75.75,0,0,0,.65-.88c0-.33-.42-.44-.74-.56a.76.76,0,0,0-.54.88C136.92,113.13,137.24,113.46,137.45,113.46Z"/>
    <path d="M161.61,111.59c.21-.11.64-.32.54-.66s-.42-.66-.74-.45-.54.21-.43.55A.68.68,0,0,0,161.61,111.59Z"/>
    <path d="M155.52,111.87c.22-.11.43-.22.43-.55-.21-.55-.85-.23-.86.21C155.2,111.64,155.31,112,155.52,111.87Z"/>
    <path d="M147.07,161.28c36.29,0,66.07-29,69.16-66.3l-8.45,2.65C203,125.05,177.66,146,147.07,146c-26.2,0-48.56-15.37-57.43-37H80.47C89,139.21,115.55,161.28,147.07,161.28Z"/>
    <path d="M135.93,33.05c-.53.42-2.34,2.29-2.88,1.47-.38-.56.48-1.28.48-1.28l-7.38-1-1.28,3.86,1.6,1.12-1.84,10.51,4.66,3,4.17-4.65-1.74-1.67s-1.18,1.17-1.63.09c-.13-.32.55-2.1,1-3.45s1.46-3.93,2.41-2.4A16.89,16.89,0,0,1,135,42.39L137.7,39l-.48-5S136.42,33.47,135.93,33.05Z"/>
    <path d="M199.12,31.6c-.58.36-2.56,2-3,1.16-.32-.59.61-1.2.61-1.2l-6.35-1.64-1.66,3.63,1.49,1.24-2.87,10.06,4.34,3.38,4.61-4.13-1.57-1.79s-1.29,1-1.63-.07a8,8,0,0,1,.86-3.28c.62-1.26,1.59-3.11,2.25-2.08a10.67,10.67,0,0,1,1.07,3.73l3-3,0-4.89S199.56,32.06,199.12,31.6Z"/>
    <path d="M119.26,23.49a3.18,3.18,0,1,0,3.4,3.18A3.3,3.3,0,0,0,119.26,23.49Zm-.46,22c-.64-.64,2.39-10,2.39-10l-7.7-2.09-1,3.69,1.6,1.61-1,11.06s4.33,2.57,4.49,2.57,3.85-5.61,3.85-5.61l-1.44-1.6S119.44,46.16,118.8,45.53Z"/>
    <path d="M183.57,20.76a3.3,3.3,0,0,0-3.4,3.18,3.41,3.41,0,1,0,3.4-3.18Zm-.46,21.65c-.64-.62,2.39-9.72,2.39-9.72l-7.06-2.18-1,3.58,1.61,1.56-1.36,10.7S181.8,49,182,49s3.85-5.44,3.85-5.44L184.37,42S183.75,43,183.1,42.41Z"/>
    <path d="M162.39,22l-7.58,14.39-.71-.61a105,105,0,0,1,.44-12.32L147,28.08l-.69,5.66a18.72,18.72,0,0,0-1.3,1.82c0-1.93-.36-15.3-.36-15.3l-7.06,4.93.16,3.08,1.6.16c.77,6.77,1.39,15.59,1.58,18.13A27.85,27.85,0,0,0,145.6,49c0-.16,3.82-8.73,3.82-8.73l1.43,9L156,46.71s7.76-18.3,9.23-20.52a14.67,14.67,0,0,1,2.83-.42l.56-4.39Z"/>
    <path d="M172.07,41.9a65.4,65.4,0,0,1,3.12-10.3l-6.7-1.34-3.11,3.53,1.61,1a5.84,5.84,0,0,1,.83-.65c.82-.48,1.12.58.53,1.54-3,2.08-6.6,4.48-9.14,7.82l2.4,5.53L168,47l3,2.38,3.84-4.66s-.76-1.38-1.16-2.12C172.36,43.65,171.85,42.69,172.07,41.9Zm-4.6,1.8a36.18,36.18,0,0,1-3.72,1.43c-.36.1-.9.26-.9-.13,0-1.52,5.24-4.91,5.24-4.91Z"/>
    <path d="M108.11,50.55c-.55-4.41.42-23.59.56-23.87-.75.24-7.22,2.08-7.22,2.08L93.28,50.4l-2.08-.32-1.54,3.64,6.19,4.05,3.21-8.5,3.44.8c.32,3.36,1.05,7.05,1.05,7.05l7.05-3.53V50.24S108.62,50.5,108.11,50.55Zm-6-5.11L100.18,45l2.4-6.69Z"/>
    <path class="cls-2"
          d="M104.64,135.33a.12.12,0,0,0,0-.09l-.72-.75a.12.12,0,0,0-.13,0l-2.14,1.16-.16.1.11-.18,1.26-2a.1.1,0,0,0,0-.06.1.1,0,0,0,0-.07l-.75-.78a.11.11,0,0,0-.13,0l-2.2,1.3.1-.15,1.22-2.08a.11.11,0,0,0,0-.05.09.09,0,0,0,0-.07l-.75-.78a.12.12,0,0,0-.09,0,.11.11,0,0,0-.08.06l-1.94,3.81a.1.1,0,0,0,0,.12l.66.69a.11.11,0,0,0,.13,0l2.11-1.21.27-.16-.17.26-1.29,2.07a.11.11,0,0,0,0,.06.1.1,0,0,0,0,.07l.68.7a.1.1,0,0,0,.12,0l3.86-1.81A.12.12,0,0,0,104.64,135.33Zm5.61,5.67a.11.11,0,0,0,.07,0l.44-.56a.11.11,0,0,0,0-.15l-3.14-2.44a.11.11,0,0,0-.15,0l-.44.56a.1.1,0,0,0,0,.06,0,0,0,0,0,0,0,.1.1,0,0,0,0,.07l1.08.84-2,2.54a.1.1,0,0,0,0,.07h0a.11.11,0,0,0,0,.07l.81.63a.11.11,0,0,0,.15,0l2-2.54,1.08.84A.1.1,0,0,0,110.24,141Zm-3.77-4.18-.76-.67-.08,0a.1.1,0,0,0-.08,0l-2.67,3a.11.11,0,0,0,0,.15l.76.67a.11.11,0,0,0,.07,0,.12.12,0,0,0,.07,0l2.68-3A.11.11,0,0,0,106.47,136.82ZM189.32,140a.11.11,0,0,0-.15,0l-1.82,1.45-2-2.51a.1.1,0,0,0-.07,0,.09.09,0,0,0-.08,0l-.8.64a.11.11,0,0,0,0,.15l2.52,3.16a.11.11,0,0,0,.15,0l2.71-2.16a.1.1,0,0,0,0-.07.08.08,0,0,0,0-.08Zm-4.61,2a2.05,2.05,0,0,0-1.63-1,2.57,2.57,0,0,0-1.66.52,2.53,2.53,0,0,0-1.12,1.35,2,2,0,0,0,.32,1.88,2.07,2.07,0,0,0,1.63,1,3.05,3.05,0,0,0,2.78-1.86,2,2,0,0,0,.1-.61A2.29,2.29,0,0,0,184.71,142Zm8.36-5.4a.1.1,0,0,0-.15,0l-1.86,1.73-.57-.61,1.61-1.5a.11.11,0,0,0,0-.08.09.09,0,0,0,0-.08l-.47-.51a.13.13,0,0,0-.16,0l-1.62,1.5-.43-.47,1.78-1.65a.11.11,0,0,0,0-.08h0a.13.13,0,0,0,0-.07l-.49-.53a.1.1,0,0,0-.15,0l-2.6,2.41a.11.11,0,0,0,0,.15l2.75,3a.11.11,0,0,0,.15,0l2.68-2.49a.1.1,0,0,0,0-.07.11.11,0,0,0,0-.08Zm-9.12,7.08a1.16,1.16,0,0,1-.55.77,1.21,1.21,0,0,1-.93.22,1.59,1.59,0,0,1-1.08-1.61,1.21,1.21,0,0,1,.56-.78,1.19,1.19,0,0,1,.93-.21,1.34,1.34,0,0,1,.81.62,1.48,1.48,0,0,1,.29.81A.78.78,0,0,1,183.95,143.66Zm-69.55-1a.1.1,0,0,0-.08,0,.12.12,0,0,0-.06,0l-.78,1.2L112,143l.78-1.2a.11.11,0,0,0,0-.06.11.11,0,0,0,0-.09l-.85-.55a.1.1,0,0,0-.08,0,.1.1,0,0,0-.07,0l-2.19,3.39a.12.12,0,0,0,0,.08.1.1,0,0,0,0,.06l.85.55a.1.1,0,0,0,.15,0l.92-1.42,1.43.93-.92,1.42a.11.11,0,0,0,0,.06.11.11,0,0,0,0,.09l.85.55a.11.11,0,0,0,.08,0,.12.12,0,0,0,.07,0l2.19-3.39a.11.11,0,0,0,0-.15ZM185,143.86Zm-5.66,1.51-.93.16-.83.27L177,146c-.17,0-.23-.05-.27-.11a.3.3,0,0,1,0-.33l.46-.39.54-.19a.48.48,0,0,1,.5.22.11.11,0,0,0,.14,0l.86-.47a.11.11,0,0,0,0-.15,1.27,1.27,0,0,0-1.07-.63,2.61,2.61,0,0,0-1.39.36,2.48,2.48,0,0,0-1.12,1.05,1.19,1.19,0,0,0,0,1.12,1,1,0,0,0,.95.58l1.13-.25.51-.17.66-.16a.23.23,0,0,1,.24.11c.06.1.1.26-.14.5l-.47.33a1.16,1.16,0,0,1-.8.2l-.31-.24a.16.16,0,0,0-.14,0l-.85.47a.11.11,0,0,0,0,.15,1.22,1.22,0,0,0,1.05.65,2.87,2.87,0,0,0,1.56-.44,2.65,2.65,0,0,0,1.15-1.08,1.18,1.18,0,0,0,0-1.15A1,1,0,0,0,179.38,145.37Zm17.11-13.13a1,1,0,0,0-1-.26l-.82.44-.7.52-.54.36c-.16.07-.24,0-.29,0a.29.29,0,0,1-.08-.32l.32-.52.45-.35a.47.47,0,0,1,.54,0,.11.11,0,0,0,.15,0l.66-.72a.11.11,0,0,0,0-.08.1.1,0,0,0,0-.07,1.25,1.25,0,0,0-1.22-.26,2.55,2.55,0,0,0-1.2.79,2.43,2.43,0,0,0-.73,1.35,1.19,1.19,0,0,0,.37,1.06,1,1,0,0,0,1.09.25l1-.6.43-.32.57-.37c.15-.05.22,0,.26,0s.17.21,0,.51l-.34.47a1.15,1.15,0,0,1-.7.44l-.37-.12a.14.14,0,0,0-.14,0l-.66.72a.13.13,0,0,0,0,.08.12.12,0,0,0,0,.07,1.24,1.24,0,0,0,1.21.29,2.87,2.87,0,0,0,1.35-.91,2.66,2.66,0,0,0,.75-1.39A1.2,1.2,0,0,0,196.48,132.25Z"/>
    <path class="cls-1"
          d="M118.11,151.24c-.28-.12-.69-.08.66-3.54,1.77-4.55,2.29-4.15,2.49-4.07l2.92,1.21c2,.83,2,1.71,1.77,2.3-.4,1-1.91,1.07-2,1.36s1.4,1.82.78,3.41c-.35.91-1.35,1.51-3.2.74Zm2.84-2.6c-.36,0-.56,0-.68.3-.54,1.4-.18,1.76.74,2.14s1.73.43,2-.3a2.48,2.48,0,0,0-.68-2.12,1.48,1.48,0,0,0-.53,0Zm1.86-1.26c.4-.06,1-.31,1.2-.69s-.26-.75-.69-.93c-1.11-.46-1.78-.28-2.33,1.16-.07.19-.19.41.13.55a1.8,1.8,0,0,0,.69.05Zm3.81,3.46a3,3,0,0,1,3.78-2.39,3.11,3.11,0,0,1,2.11,4,3,3,0,0,1-3.78,2.41A3.13,3.13,0,0,1,126.62,150.84Zm4.5,1a1.69,1.69,0,0,0-1-2.24c-1.16-.32-1.77.66-2,1.42a1.69,1.69,0,0,0,1,2.27C130.33,153.6,130.92,152.59,131.12,151.83Zm8.34-1.4c.5.08.21,2.14.07,3.08-.54,3.61-.82,3.39-1.69,3.25-1.26-.2-.22-.6-.9-.7a2.93,2.93,0,0,0-.65.23,1.89,1.89,0,0,1-.92.09c-1-.16-1.85-.82-1.43-3.62,0-.17.54-3.1,1-3l1.11.18c.15,0,.49,0,.46.22a8.23,8.23,0,0,0-1,2.9c-.08.55-.31,2,.72,2.2.4.06,1.32.11,1.64-2a17.48,17.48,0,0,0,0-2.92c0-.13.29-.07.43-.05Zm5.62,6.73c-.16,0-.43,0-.42-.17a10.06,10.06,0,0,0,.75-3.41c0-.71,0-1.6-.84-1.63-.46,0-1.42.2-1.49,2.16a18.78,18.78,0,0,0,.24,2.85c0,.14-.21.12-.34.12l-1,0c-.45,0-.64.15-.54-2.48.17-4.5.58-4.2,1.52-4.16.43,0,.87,0,.86.21s-.12.21-.12.35a.18.18,0,0,0,.17.2,5.62,5.62,0,0,1,1.56-.35c.34,0,1.75.11,1.65,2.72-.15,3.9-.52,3.68-.93,3.67Zm3.54-2.81a3.45,3.45,0,0,1,3.21-3.88c1.05-.07,1.84.34,1.88.9,0,.3-.21.89-.66.92-.28,0-.28-.72-1.26-.65-1.25.09-1.61,1.46-1.56,2.3a1.62,1.62,0,0,0,1.82,1.65,2,2,0,0,0,1.66-1.1c.06,0,.19.17.22.57.08,1.19-.83,2-2.26,2.09A2.78,2.78,0,0,1,148.62,154.35Zm6.27-5.5c-.06-.42.35-.75.83-.82s1,.12,1,.54-.35.72-.83.79S155,149.27,154.89,148.85Zm2.4,7.51c.27,0,.64,0,.6-.35a17.18,17.18,0,0,1-1-4,16.57,16.57,0,0,1-.11-1.82c0-.12,0-.14-.54-.06l-.66.1c-.39.06-.63-.24-.16,3.13s.5,3.25,1.09,3.16Zm6.25-1.29c-.15,0-.41.13-.45-.05a10.18,10.18,0,0,0-.16-3.49c-.15-.69-.42-1.53-1.22-1.33-.45.11-1.32.57-.88,2.49a18.78,18.78,0,0,0,1,2.68c0,.14-.17.18-.29.2l-1,.25c-.44.11-.58.31-1.16-2.24-1-4.38-.51-4.21.4-4.43.41-.1.83-.25.88,0s-.06.24,0,.37a.17.17,0,0,0,.22.14,5.59,5.59,0,0,1,1.41-.76c.33-.08,1.71-.37,2.29,2.17.86,3.8.44,3.7,0,3.79Zm9.39-3.77a2.76,2.76,0,0,0-3.84-.82c-.52.27-.75.63-1,.69a.33.33,0,0,1-.32-.2c-.09-.28.56-.87,1.19-1.11,1.71-.63,2.11-1.94,1.78-2.91s-1-1-1.09-1.26c-.17-.49,1-.6.89-.88a1.72,1.72,0,0,0-1.22-.47c-.45.17-.47,1.14-1,1.34a4.2,4.2,0,0,0-.73.19c-1.54.56-2.21,1.65-1.79,2.87.35,1,1.31,1.12,1.39,1.34s-1.18.85-.8,1.94a1.12,1.12,0,0,0,1.08.73,1.84,1.84,0,0,0,.2,1.43c.66,1.1,2.29,1.19,3.81.5a3,3,0,0,0,1.62-1.58A2.32,2.32,0,0,0,172.94,151.29Zm-5.82-3.18a1.08,1.08,0,0,1,.78-1.36,1,1,0,0,1,1.44.54,1.08,1.08,0,0,1-.78,1.37A1,1,0,0,1,167.12,148.11Zm3.62,5.48a1.44,1.44,0,0,1-2-.39c-.36-.64-.06-1.37.79-1.8a1.45,1.45,0,0,1,2,.39C171.92,152.48,171.52,153.2,170.74,153.59Z"/>
    <path d="M33.76,17.32V36.9c-.14,5.21-8.52,4.29-8.52,4.29V13S33.62,12.11,33.76,17.32ZM169.93,93.05c-7.81,1.24-15.63,2.13-23.39,2.64l.3,2.39c7.76-.52,15.57-1.42,23.37-2.65Zm.78,6.82L171,102c-3.88.9-17.58,2.39-23.3,2.73l-.27-2.19C155.14,102,162.93,101.12,170.71,99.87Zm-.12-1c-7.78,1.24-15.58,2.15-23.33,2.68L147,99.13c7.76-.52,15.57-1.42,23.36-2.65ZM169.81,92c-7.81,1.24-15.64,2.13-23.4,2.64l-.29-2.34s4.25-.82,4-4.59c-.07-.56-.84-6.46-1-7.39-.46-2.81-3.76-1.92-3.76-1.92s-1.31-10.64-1.24-10.65c.88-.12,3.4-.37,3.06-3.14-.3-2.43-1.07-8.05-1.07-8.05l14.68-1.71s.62,5.64.92,8.07c.34,2.77,2.84,2.31,3.72,2.21.08,0,1.39,10.63,1.39,10.63s-3.4,0-3.17,2.87c.11.93.8,6.84.87,7.4.66,3.72,5,3.39,5,3.39ZM41.36,51.51H3.09V40.86s6.44,0,6.72-5.37V18.72c-.28-5.35-6.72-5.37-6.72-5.37V2.7H41.36s7.62.06,7.86,8V43.52C49,51.45,41.36,51.51,41.36,51.51Zm-7.6-34.19C33.62,12.11,25.24,13,25.24,13V41.18s8.38.93,8.52-4.28ZM51.53,43V51H64.45l0-7.88a1.81,1.81,0,0,1-1.73-1.87V36.51c0-3.75,3.87-3.87,3.87.21l0,1.43h7.24V34.71c0-8.56-7.57-9.18-11.69-4.85V27.22H51.54v6.41a1.81,1.81,0,0,1,1.72,1.88v5.57A1.81,1.81,0,0,1,51.53,43ZM67.32,51h6.91V43.21H67.32ZM25.24,13V41.18s8.38.93,8.52-4.28V17.32C33.62,12.11,25.24,13,25.24,13Zm77,83.29-36.51.16a17.62,17.62,0,0,0,1.3,2.4l35.21-.16Zm0,6.92v2.31H85.7v-2.24Zm0-1.06-16.56.08v-.81a4.32,4.32,0,0,1-.55.81l-15.09.07a14.33,14.33,0,0,1-2.28-2.39l34.48-.16Zm-30.73,1.2L84,103.33a11.82,11.82,0,0,1-10.69,1A14.15,14.15,0,0,1,71.53,103.38ZM99.57,90V68.34l-13.86.05V72.5c-1.55-3.13-7.9-4.85-12.41-2.86-6.77,3-9.4,10.37-9.36,17.33a24.16,24.16,0,0,0,1.42,8.46l36.92-.17V92.94A2.83,2.83,0,0,1,99.57,90ZM82.7,92.93c-2.29,0-4.13-3.41-4.13-7.61s1.84-7.63,4.13-7.63,4.13,3.42,4.13,7.63S85,92.93,82.7,92.93Zm-21.49-.12s-6.89.12-7-4.21-.13-14.16,0-17.44c.16-5.68,6.69-5.46,6.69-5.46V55.46H41.09L32,72.3,22.81,55.46H3V65.71s6.76-.23,6.92,5.46c.09,3.29,0,13.11,0,17.44s-7.2,4.21-7.2,4.21v2.9l25.18-.12V93.06s-3.36-.08-3.36-3V84L32,93.46,39.41,84v6.1c0,2.89-3.37,3-3.37,3v2.5l25.18-.12ZM2.67,103.7l25.19-.12v2.35H2.67Zm0-6.92,25.18-.12v2.4l-25.18.11Zm0,3.46,25.19-.11v2.4l-25.19.12Zm58.55-1.32L36,99v-2.4l25.18-.12Zm0,4.52v2.5H36v-2.38Zm0-1.06L36,102.48v-2.4L61.23,100Zm65.9-6.16L107,96.3v2.4l20.14-.09Zm0,5.86-20.14.09v-2.4l20.14-.09Zm0,1.06v2.35H107v-2.26Zm0-8L107,95.24V92.87a2.82,2.82,0,0,0,2.7-2.92V81.25a2.82,2.82,0,0,0-2.7-2.92v-10h16.56v4.11c6.42-6.75,18.23-5.79,18.17,7.58,0,2.95,0,5.34,0,5.34H130.49l0-2.23c0-6.36-6-6.18-6-.32l0,7.47a2.82,2.82,0,0,0,2.7,2.93ZM285,50.91c0-.12-.08-.24-.12-.36a280,280,0,0,1-28.69,15.58l1.05,2a274.77,274.77,0,0,0,28.08-15.37A8.68,8.68,0,0,0,285,50.91ZM285,56.46a273.86,273.86,0,0,1-26.22,14.42l-1-1.83A275.92,275.92,0,0,0,285.38,54c0,.06,0,.12,0,.18A11.1,11.1,0,0,1,285,56.46Zm-18.49,3.41q-5.23,2.72-10.74,5.33l-1.27-2.4s8.7-4.57,10.22-5.41a12.11,12.11,0,0,0,1.42,2.2A3.29,3.29,0,0,0,266.47,59.87Zm18.06-10.32q-6.2,3.88-13,7.6a2.33,2.33,0,0,0-.3-1c-1-1.77-2.16-2.24-9.48.18-2.14.71-8.86,2.39-13.21-2.12a14.17,14.17,0,0,1-2.31-3.6c-3-6.62,2.43-12.15,5.93-14.24,1.6-1,17.32-9,17.32-9l5.44,10.19s-9.47,4.95-11,5.78c-.31-.34-.67-1.33-1.38-1.57-1.61-.53-4.75,1.27-4.7,2.75a2.5,2.5,0,0,0,.56,1.44c.63.51,1.89.85,6-.67C278.89,39.75,282.85,45.62,284.53,49.55Zm-.15,8.51c0,.08-.07.17-.11.25a14.77,14.77,0,0,1-6.49,6.44c-1.63.89-14,7.45-17.42,9.21l-1.14-2.16A276.39,276.39,0,0,0,284.38,58.06ZM215.27,88.13q9.7-3.08,19-6.67l-.78-2Q224.19,83,214.44,86Zm38.25-14.79q-7.81,3.59-16.08,6.89l-.79-2q8.27-3.24,16.12-6.82Zm.38,1,.76,1.95c-2.77,1.42-13.29,5.82-16,7l-.79-2Q246.08,77.93,253.9,74.32Zm-40.71,8.54c6.49-2,12.89-4.23,19.13-6.59l.82,2.17Q223.81,82,214.05,85Zm38-15.56q-7.85,3.56-16.15,6.8l-4.87-12.42c-2-5.23-7.79-3.37-5.64,2.17.91,2.34,1.89,4.77,2.72,7,1,2.51,3.65,1.72,3.65,1.72l1.05,2.76q-9.37,3.54-19.14,6.59L212,79.76s2.29-1.54,1.41-3.93c-.72-2-2.18-5.68-3-7.78C209.17,65,206.68,66,206.68,66l-3.6-9.34,15.41-6S220,54.35,220,54.48c1.36-3,5.69-6.63,9.77-7.62,9.33-2.26,11.88,4.45,16.87,16.27a2.48,2.48,0,0,0,3.53,1.5Zm1.21,3.1q-7.83,3.57-16.12,6.82l-.84-2.15q8.28-3.23,16.15-6.8ZM215.65,89.11c6.47-2.05,12.82-4.28,19-6.67l.75,2c-1.76.7-17.16,6.33-18.89,6.88Zm-26.37-.89q-7.3,1.67-14.68,3c-.07-.19-.13-.39-.19-.56A121.73,121.73,0,0,1,171.25,78c-3.16-18.86,28.55-23,31.86-10.27l2.63,9.6L187,82.1,188.33,87h.08A2.53,2.53,0,0,0,189.28,88.22ZM185.94,77.5,192,76s-.78-3.37-1.15-4.43c-1.11-3.18-6.59-1.76-5.95,1.45C185.09,74.22,185.94,77.5,185.94,77.5Zm20.57,3.67L194,84.27l.67,2.66q6.25-1.55,12.43-3.35Zm1.72,6.74a313.11,313.11,0,0,1-31.37,7.45,8.81,8.81,0,0,0,2.27,1.92l0,0c10-1.91,19.92-4.34,29.62-7.2Zm-.84-3.3A310,310,0,0,1,175,92.21h0a13.66,13.66,0,0,0,1.15,2.18l0,0A311.08,311.08,0,0,0,208,86.89ZM180.62,98.11a10.36,10.36,0,0,0,6.78.79c5-.86,17-3.91,22.25-5.47l-.59-2.31C199.74,93.87,190.21,96.23,180.62,98.11Z"/>
    <path class="cls-2"
          d="M251.56,68.28q-7.85,3.56-16.15,6.8l-.38-1q8.29-3.23,16.15-6.8ZM2.69,96.78l25.18-.12V95.6l-25.18.12Zm99.58-1.51-36.92.17c.13.36.26.71.41,1.06l36.51-.16ZM284.84,50.32l-.17-.42-.14-.35q-6.2,3.88-13,7.6a1.16,1.16,0,0,1-.22.83l0,0a8.63,8.63,0,0,1-3.72,2,1.7,1.7,0,0,1-.91-.06l-.16-.1q-5.23,2.72-10.74,5.33l.49.93a280,280,0,0,0,28.69-15.58ZM61.22,95.45,36,95.56v1.06l25.18-.12Zm152-12.59c6.49-2,12.89-4.23,19.13-6.59l-.37-1q-9.37,3.54-19.14,6.59Zm-6.07.73Q201,85.37,194.7,86.93l.24,1-3.36.87a3.16,3.16,0,0,1-2.31-.54q-7.3,1.67-14.68,3h0c.12.31.24.64.38,1a310,310,0,0,0,32.41-7.6Zm-80,11.56L107,95.24V96.3l20.13-.09ZM169.81,92c-7.81,1.24-15.64,2.13-23.4,2.64l.13,1c7.76-.51,15.58-1.4,23.39-2.64ZM61.23,98.91,36,99v1.06L61.23,100ZM208,86.89a311.08,311.08,0,0,1-31.82,7.53,10.59,10.59,0,0,0,.68.92l0,0a313.11,313.11,0,0,0,31.37-7.45ZM170.2,95.43c-7.8,1.23-15.61,2.13-23.37,2.65l.13,1.05c7.76-.52,15.57-1.42,23.36-2.65Zm-43.07,3.19L107,98.7v1.06l20.14-.09ZM285.38,52.92c0-.06,0-.11,0-.17a274.77,274.77,0,0,1-28.08,15.37l.49.93A275.92,275.92,0,0,0,285.38,54,10.11,10.11,0,0,0,285.38,52.92ZM2.68,100.23l25.19-.11V99.06l-25.18.11ZM252.38,70.4q-7.83,3.57-16.12,6.82l.38,1q8.27-3.24,16.12-6.82ZM102.27,98.72l-35.21.16c.23.36.47.71.73,1.05l34.48-.16ZM214.44,86q9.73-3,19.07-6.62l-.37-1Q223.81,82,214.05,85ZM2.67,103.7l25.19-.12v-1.06l-25.19.12Zm282.24-47c0-.08,0-.15.05-.22a273.86,273.86,0,0,1-26.22,14.42l.49.93a276.39,276.39,0,0,0,25.15-13.74A11.6,11.6,0,0,0,284.91,56.68ZM215.65,89.11c6.47-2.05,12.82-4.28,19-6.67l-.37-1q-9.3,3.57-19,6.67Zm-6.86,1c-9.7,2.86-19.62,5.29-29.62,7.2.11.07.21.15.33.21.28.14.62.34,1,.56l.07,0c9.59-1.88,19.12-4.24,28.44-7Zm-38.2,8.72c-7.78,1.24-15.58,2.15-23.33,2.68l.13,1.05c7.75-.53,15.54-1.44,23.32-2.69ZM61.23,102.37,36,102.48v1.06l25.19-.11Zm65.91-.3-20.14.09v1.06l20.14-.09ZM253.52,73.34q-7.81,3.59-16.08,6.89l.38,1q8.26-3.28,16.08-6.89Zm-182,30L84,103.33a6,6,0,0,0,1.18-1.07l-15.09.07A14.36,14.36,0,0,0,71.53,103.38Zm30.73-1.2-16.56.08v1.06l16.56-.07Z"/>
</svg>
